<svg width="2500" height="831" viewBox="0 0 2500 831" fill="none" xmlns="http://www.w3.org/2000/svg">
<path d="M8 1L170.5 187.5L319 430.5L432.5 635.5L498.5 831.5" stroke="white"/>
<path d="M-78 1L84.5 187.5L233 430.5L346.5 635.5L412.5 831.5" stroke="white"/>
<path d="M-163 1L-0.5 187.5L148 430.5L261.5 635.5L327.5 831.5" stroke="white"/>
<path d="M-236 1L-73.5 187.5L75 430.5L188.5 635.5L254.5 831.5" stroke="white"/>
<path d="M-321 1L-158.5 187.5L-10 430.5L103.5 635.5L169.5 831.5" stroke="white"/>
<path d="M-389 1L-226.5 187.5L-78 430.5L35.5 635.5L101.5 831.5" stroke="white"/>
<path d="M-448 1L-285.5 187.5L-137 430.5L-23.5 635.5L42.5 831.5" stroke="white"/>
<path d="M97 1L259.5 187.5L408 430.5L521.5 635.5L587.5 831.5" stroke="white"/>
<path d="M176 2L338.5 188.275L487 430.983L600.5 635.736L666.5 831.5" stroke="white"/>
<path d="M258 2L420.5 188.275L569 430.983L682.5 635.736L748.5 831.5" stroke="white"/>
<path d="M341 2L503.5 188.275L652 430.983L765.5 635.736L831.5 831.5" stroke="white"/>
<path d="M574 1L736.5 187.5L885 430.5L998.5 635.5L1064.5 831.5" stroke="white"/>
<path d="M488 1L650.5 187.5L799 430.5L912.5 635.5L978.5 831.5" stroke="white"/>
<path d="M403 1L565.5 187.5L714 430.5L827.5 635.5L893.5 831.5" stroke="white"/>
<path d="M663 1L825.5 187.5L974 430.5L1087.5 635.5L1153.5 831.5" stroke="white"/>
<path d="M742 2L904.5 188.275L1053 430.983L1166.5 635.736L1232.5 831.5" stroke="white"/>
<path d="M824 2L986.5 188.275L1135 430.983L1248.5 635.736L1314.5 831.5" stroke="white"/>
<path d="M907 2L1069.5 188.275L1218 430.983L1331.5 635.736L1397.5 831.5" stroke="white"/>
<path d="M1149 1L1311.5 187.5L1460 430.5L1573.5 635.5L1639.5 831.5" stroke="white"/>
<path d="M1063 1L1225.5 187.5L1374 430.5L1487.5 635.5L1553.5 831.5" stroke="white"/>
<path d="M978 1L1140.5 187.5L1289 430.5L1402.5 635.5L1468.5 831.5" stroke="white"/>
<path d="M1238 1L1400.5 187.5L1549 430.5L1662.5 635.5L1728.5 831.5" stroke="white"/>
<path d="M1317 2L1479.5 188.275L1628 430.983L1741.5 635.736L1807.5 831.5" stroke="white"/>
<path d="M1399 2L1561.5 188.275L1710 430.983L1823.5 635.736L1889.5 831.5" stroke="white"/>
<path d="M1482 2L1644.5 188.275L1793 430.983L1906.5 635.736L1972.5 831.5" stroke="white"/>
<path d="M1724 1L1886.5 187.5L2035 430.5L2148.5 635.5L2214.5 831.5" stroke="white"/>
<path d="M1638 1L1800.5 187.5L1949 430.5L2062.5 635.5L2128.5 831.5" stroke="white"/>
<path d="M1553 1L1715.5 187.5L1864 430.5L1977.5 635.5L2043.5 831.5" stroke="white"/>
<path d="M1813 1L1975.5 187.5L2124 430.5L2237.5 635.5L2303.5 831.5" stroke="white"/>
<path d="M1892 2L2054.5 188.275L2203 430.983L2316.5 635.736L2382.5 831.5" stroke="white"/>
<path d="M1974 2L2136.5 188.275L2285 430.983L2398.5 635.736L2464.5 831.5" stroke="white"/>
<path d="M2057 2L2219.5 188.275L2368 430.983L2481.5 635.736L2547.5 831.5" stroke="white"/>
<path d="M2296 1L2458.83 187.5L2607.63 430.5L2721.37 635.5L2787.5 831.5" stroke="white"/>
<path d="M2210 1L2372.83 187.5L2521.63 430.5L2635.37 635.5L2701.5 831.5" stroke="white"/>
<path d="M2125 1L2287.83 187.5L2436.63 430.5L2550.37 635.5L2616.5 831.5" stroke="white"/>
<path d="M2385 1L2547.83 187.5L2696.63 430.5L2810.37 635.5L2876.5 831.5" stroke="white"/>
<path d="M2464 2L2626.83 188.275L2775.63 430.983L2889.37 635.736L2955.5 831.5" stroke="white"/>
</svg>
